<svg width="49" height="48" viewBox="0 0 49 48" fill="none" xmlns="http://www.w3.org/2000/svg">
<path fill-rule="evenodd" clip-rule="evenodd" d="M24.5203 0C10.9612 0 0 11 0 24.6084C0 35.4864 7.02321 44.6943 16.7663 47.9533C17.9844 48.1983 18.4306 47.4238 18.4306 46.7723C18.4306 46.2018 18.3905 44.2463 18.3905 42.2088C11.5695 43.6758 10.1491 39.2753 10.1491 39.2753C9.05294 36.4234 7.42876 35.6904 7.42876 35.6904C5.19627 34.1829 7.59138 34.1829 7.59138 34.1829C10.0678 34.3459 11.3672 36.7088 11.3672 36.7088C13.5591 40.4568 17.091 39.3978 18.5119 38.7458C18.7147 37.1568 19.3647 36.0569 20.0548 35.4459C14.6146 34.8754 8.89082 32.7569 8.89082 23.3044C8.89082 20.6154 9.86452 18.4154 11.4074 16.7044C11.164 16.0934 10.3112 13.5669 11.6513 10.1855C11.6513 10.1855 13.7217 9.53346 18.39 12.7114C20.3886 12.1728 22.4498 11.8988 24.5203 11.8965C26.5906 11.8965 28.7012 12.182 30.6501 12.7114C35.3188 9.53346 37.3892 10.1855 37.3892 10.1855C38.7293 13.5669 37.8761 16.0934 37.6326 16.7044C39.2162 18.4154 40.1497 20.6154 40.1497 23.3044C40.1497 32.7569 34.426 34.8344 28.9451 35.4459C29.8385 36.2199 30.6094 37.6863 30.6094 40.0088C30.6094 43.3088 30.5693 45.9573 30.5693 46.7718C30.5693 47.4238 31.016 48.1983 32.2336 47.9538C41.9767 44.6938 48.9999 35.4864 48.9999 24.6084C49.04 11 38.0387 0 24.5203 0Z" fill="white"/>
</svg>
