<svg xmlns:xlink="http://www.w3.org/1999/xlink" xmlns="http://www.w3.org/2000/svg" width="360.86695590606973" height="261.36000366210936" viewBox="0 0 57.5 41.64471133921995" class="looka-1j8o68f"><defs id="SvgjsDefs1295"></defs><g id="SvgjsG1296" featurekey="nameFeature-0" transform="matrix(1.3918685913085938,0,0,1.3918685913085938,-0.5501984835177027,-13.91868203997441)" fill="#414557"><path d="M41.44 10.600000000000001 q0.4 0.56 0.2 1.24 l-8.44 27.08 q-0.12 0.44 -0.5 0.72 t-0.86 0.28 l-3.48 0 q-0.44 0 -0.82 -0.28 t-0.5 -0.68 l-6 -18.56 l-5.96 18.56 q-0.16 0.44 -0.52 0.7 t-0.84 0.26 l-3.48 0 q-0.72 0 -1.16 -0.56 q-0.4 -0.68 -0.16 -1.28 l9.04 -27.12 q0.12 -0.4 0.5 -0.68 t0.82 -0.28 l3.52 0 q0.48 0 0.84 0.28 t0.52 0.72 l5.92 18.4 l5.6 -18.4 q0.16 -0.44 0.54 -0.72 t0.82 -0.28 l3.24 0 q0.76 0 1.16 0.6 z M6.4 11 l2.28 7.48 q0.24 0.68 -0.2 1.26 t-1.16 0.58 l-3.16 0 q-0.48 0 -0.86 -0.28 t-0.5 -0.72 l-2.32 -7.48 q-0.24 -0.68 0.2 -1.26 t1.12 -0.58 l3.24 0 q0.48 0 0.86 0.28 t0.5 0.72 z" fill="#414557"></path></g></svg>