<svg xmlns="http://www.w3.org/2000/svg" version="1.1" xmlns:xlink="http://www.w3.org/1999/xlink" width="512" height="512" x="0" y="0" viewBox="0 0 682.667 682.667" style="enable-background:new 0 0 512 512" xml:space="preserve" class=""><g><defs><clipPath id="a" clipPathUnits="userSpaceOnUse"><path d="M0 512h512V0H0Z" fill="#000000" opacity="1" data-original="#000000" class=""></path></clipPath></defs><g clip-path="url(#a)" transform="matrix(1.33333 0 0 -1.33333 0 682.667)"><path d="M0 0c-3.057-8.998-4.796-18.601-4.796-28.636 0-49.705 40.294-90 90-90s90 40.295 90 90c0 49.706-40.294 90-90 90-10.034 0-19.637-1.739-28.635-4.796l-188.341 188.341c10.49 31.33 3.499 67.212-21.453 92.163-27.697 27.698-68.921 33.47-102.367 17.515l52.87-52.87-42.426-42.427-52.871 52.87c-15.955-33.446-10.182-74.67 17.515-102.367 24.951-24.951 60.832-31.942 92.163-21.453z" style="stroke-linecap: round; stroke-linejoin: round; stroke-miterlimit: 10; stroke-dasharray: none; stroke-opacity: 1;" transform="translate(321.796 133.636)" fill="none" stroke="#000000" stroke-width="30px" stroke-linecap="round" stroke-linejoin="round" stroke-miterlimit="10" stroke-dasharray="none" stroke-opacity="" data-original="#000000" class=""></path><path d="m0 0-65.978-65.977c-31.33 10.491-67.21 3.499-92.162-21.452-27.697-27.697-33.469-68.921-17.514-102.367l52.87 52.87 42.427-42.427-52.871-52.869c33.447-15.956 74.67-10.183 102.368 17.514 24.951 24.951 31.942 60.832 21.452 92.163l65.976 65.977" style="stroke-linecap: round; stroke-linejoin: round; stroke-miterlimit: 10; stroke-dasharray: none; stroke-opacity: 1;" transform="translate(199.432 256)" fill="none" stroke="#000000" stroke-width="30px" stroke-linecap="round" stroke-linejoin="round" stroke-miterlimit="10" stroke-dasharray="none" stroke-opacity="" data-original="#000000" class=""></path><path d="m0 0 65.977 65.977c31.331-10.491 67.211-3.499 92.163 21.452 27.697 27.697 33.469 68.921 17.514 102.367l-52.87-52.87-42.427 42.427 52.871 52.87c-33.447 15.956-74.67 10.182-102.369-17.515-24.95-24.951-31.941-60.833-21.452-92.163l-65.975-65.977" style="stroke-linecap: round; stroke-linejoin: round; stroke-miterlimit: 10; stroke-dasharray: none; stroke-opacity: 1;" transform="translate(312.568 256)" fill="none" stroke="#000000" stroke-width="30px" stroke-linecap="round" stroke-linejoin="round" stroke-miterlimit="10" stroke-dasharray="none" stroke-opacity="" data-original="#000000" class=""></path><path d="m0 0-17.574-17.574h-24.852L-60 0v24.853l17.574 17.573h24.852L0 24.853Z" style="stroke-linecap: round; stroke-linejoin: round; stroke-miterlimit: 10; stroke-dasharray: none; stroke-opacity: 1;" transform="translate(437 92.574)" fill="none" stroke="#000000" stroke-width="30px" stroke-linecap="round" stroke-linejoin="round" stroke-miterlimit="10" stroke-dasharray="none" stroke-opacity="" data-original="#000000" class=""></path></g></g></svg>