<svg width="23" height="14" viewBox="0 0 23 14" fill="none" xmlns="http://www.w3.org/2000/svg">
<path fill-rule="evenodd" clip-rule="evenodd" d="M0.4846 0.272699V9H5.5982V8.0625H1.5414V0.272699H0.4846ZM7.0982 2.4545V9H8.1039V2.4545H7.0982ZM7.1025 1.1634C7.2445 1.2969 7.4135 1.3636 7.6096 1.3636C7.8056 1.3636 7.9732 1.2969 8.1124 1.1634C8.2544 1.0298 8.3255 0.869301 8.3255 0.681801C8.3255 0.494301 8.2544 0.3338 8.1124 0.2003C7.9732 0.0668002 7.8056 0 7.6096 0C7.4135 0 7.2445 0.0668002 7.1025 0.2003C6.9632 0.3338 6.8936 0.494301 6.8936 0.681801C6.8936 0.869301 6.9632 1.0298 7.1025 1.1634ZM10.9515 9V5.0625C10.9515 4.6818 11.024 4.358 11.1689 4.0909C11.3137 3.8239 11.5112 3.6207 11.7612 3.4815C12.014 3.3423 12.301 3.2727 12.622 3.2727C13.0879 3.2727 13.4544 3.4176 13.7214 3.7074C13.9885 3.9943 14.122 4.3949 14.122 4.9091V9H15.1277V4.8409C15.1277 4.2841 15.0353 3.8239 14.8507 3.4602C14.666 3.0938 14.4075 2.821 14.0751 2.642C13.7427 2.4602 13.3549 2.3693 12.9118 2.3693C12.4174 2.3693 12.014 2.4716 11.7015 2.6761C11.389 2.8778 11.1561 3.1449 11.0027 3.4773H10.9174V2.4545H9.9458V9H10.9515ZM17.9711 6.5505V9H16.9654V0.272699H17.9711V5.3693H18.0904L20.954 2.4545H22.1983L19.4328 5.2509L22.4029 9H21.1245L18.6754 5.8979L17.9711 6.5505ZM0 14H23V13H0V14Z" fill="#E8E8E8"/>
</svg>
