<svg width="24" height="10" viewBox="0 0 24 10" fill="none" xmlns="http://www.w3.org/2000/svg">
<path fill-rule="evenodd" clip-rule="evenodd" d="M0.380859 0.272461V1.20996H3.12516V8.99976H4.18196V1.20996H6.92626V0.272461H0.380859ZM8.58396 8.71846C9.04136 8.99686 9.58536 9.13606 10.2161 9.13606C10.6593 9.13606 11.0584 9.06796 11.4136 8.93156C11.7687 8.79236 12.067 8.59916 12.3084 8.35206C12.5499 8.10206 12.7218 7.81226 12.8241 7.48266L11.8525 7.20996C11.7672 7.43726 11.6465 7.62756 11.4903 7.78096C11.334 7.93156 11.1479 8.04516 10.932 8.12186C10.7189 8.19576 10.4803 8.23266 10.2161 8.23266C9.80986 8.23266 9.45326 8.14466 9.14646 7.96846C8.83966 7.78946 8.59956 7.52956 8.42626 7.18866C8.27176 6.87696 8.18726 6.50336 8.17286 6.06796H12.9263V5.64176C12.9263 5.03096 12.8454 4.51676 12.6834 4.09916C12.5215 3.68156 12.3042 3.34636 12.0314 3.09346C11.7587 2.83776 11.4562 2.65316 11.1238 2.53946C10.7914 2.42586 10.4547 2.36906 10.1138 2.36906C9.52286 2.36906 9.00586 2.51396 8.56266 2.80376C8.12236 3.09066 7.77856 3.49126 7.53146 4.00546C7.28706 4.51676 7.16496 5.10766 7.16496 5.77816C7.16496 6.44856 7.28706 7.03666 7.53146 7.54236C7.77856 8.04516 8.12946 8.43726 8.58396 8.71846ZM8.17536 5.19856C8.19456 4.89496 8.27106 4.60806 8.40496 4.33776C8.56126 4.02246 8.78426 3.76676 9.07406 3.57076C9.36666 3.37186 9.71326 3.27246 10.1138 3.27246C10.4775 3.27246 10.7928 3.35626 11.0599 3.52386C11.3297 3.69146 11.5371 3.92016 11.682 4.20996C11.8297 4.49976 11.9036 4.82926 11.9036 5.19856H8.17536ZM15.0304 2.45426L16.5986 5.13046L18.1667 2.45426H19.3258L17.2122 5.72706L19.3258 8.99976H18.1667L16.5986 6.45996L15.0304 8.99976H13.8713L15.9508 5.72706L13.8713 2.45426H15.0304ZM23.6074 3.30656V2.45426H22.2097V0.886061H21.204V2.45426H20.2154V3.30656H21.204V7.39746C21.204 7.77816 21.2921 8.09346 21.4682 8.34346C21.6472 8.59346 21.8716 8.77956 22.1415 8.90176C22.4143 9.02386 22.6927 9.08496 22.9768 9.08496C23.1643 9.08496 23.3191 9.07076 23.4413 9.04236C23.5634 9.01676 23.6586 8.99126 23.7268 8.96566L23.5222 8.06226L23.3518 8.09636C23.2807 8.10766 23.1898 8.11336 23.079 8.11336C22.9313 8.11336 22.7907 8.09066 22.6572 8.04516C22.5265 7.99686 22.4185 7.90316 22.3333 7.76396C22.2509 7.62186 22.2097 7.40886 22.2097 7.12476V3.30656H23.6074Z" fill="#E8E8E8"/>
</svg>
