<svg width="14" height="14" viewBox="0 0 14 14" fill="none" xmlns="http://www.w3.org/2000/svg">
<path d="M7.84987 14L6.71955 11.3441C7.80827 10.9419 8.82764 10.401 9.77073 9.77001L7.84987 14ZM2.65592 7.28056L0 6.15025L4.23005 4.22942C3.59901 5.1725 3.05812 6.19186 2.65592 7.28056ZM13.7303 0.269872C13.7303 0.269872 10.2978 -1.20092 6.37282 2.72465C4.85416 4.24329 3.94574 5.91448 3.35631 7.37764C3.16214 7.89772 3.2939 8.46634 3.67529 8.85467L5.15235 10.3248C5.53374 10.7131 6.10237 10.8379 6.62246 10.6437C8.10645 10.0751 9.75686 9.14591 11.2755 7.62728C15.2005 3.7024 13.7303 0.269872 13.7303 0.269872ZM8.82764 5.1725C8.28675 4.63161 8.28675 3.75094 8.82764 3.21006C9.36853 2.66918 10.2492 2.66918 10.7901 3.21006C11.3241 3.75094 11.331 4.63161 10.7901 5.1725C10.2492 5.71338 9.36853 5.71338 8.82764 5.1725ZM3.07199 13.8682L5.59615 11.3441C5.36038 11.2817 5.13154 11.1777 4.92351 11.0321L2.09422 13.8682H3.07199ZM0.131756 13.8682H1.10952L4.41729 10.5675L3.43259 9.58972L0.131756 12.8905V13.8682ZM0.131756 11.9058L2.96797 9.07657C2.82235 8.86854 2.71833 8.64664 2.65592 8.40393L0.131756 10.9281V11.9058Z" fill="#0A0A0A" fill-opacity="0.8"/>
</svg>
